<svg width="36" height="38" viewBox="0 0 36 38" fill="none" xmlns="http://www.w3.org/2000/svg">
<g filter="url(#filter0_d_0_317)">
<path opacity="0.4" d="M17.9988 29.331C16.9735 29.331 15.9495 28.9417 15.1668 28.1643L14.1935 27.191C13.8161 26.815 13.3108 26.607 12.7748 26.6057H11.4055C9.19212 26.6057 7.39079 24.8043 7.39079 22.591V21.2203C7.38946 20.6857 7.18146 20.1803 6.80412 19.8003L5.84679 18.8443C4.27879 17.2857 4.27212 14.7377 5.83212 13.1683L6.80546 12.1937C7.18146 11.8163 7.38946 11.311 7.39079 10.775V9.40699C7.39079 7.19232 9.19212 5.39099 11.4055 5.39099H12.7761C13.3108 5.39099 13.8148 5.18299 14.1948 4.80299L15.1535 3.84699C16.7121 2.27899 19.2588 2.27099 20.8295 3.83232L21.8028 4.80565C22.1815 5.18299 22.6855 5.39099 23.2201 5.39099H24.5908C26.8041 5.39099 28.6055 7.19232 28.6055 9.40699V10.7763C28.6068 11.311 28.8148 11.8163 29.1921 12.1963L30.1495 13.1537C30.9081 13.9083 31.3281 14.9137 31.3321 15.987C31.3348 17.0537 30.9241 18.0577 30.1761 18.8163C30.1628 18.8297 30.1508 18.8443 30.1375 18.8563L29.1908 19.803C28.8148 20.1803 28.6068 20.6857 28.6055 21.2217V22.591C28.6055 24.8043 26.8041 26.6057 24.5908 26.6057H23.2201C22.6855 26.607 22.1801 26.815 21.8015 27.1923L20.8428 28.1497C20.0615 28.9363 19.0295 29.331 17.9988 29.331" fill="#393939"/>
<path fill-rule="evenodd" clip-rule="evenodd" d="M15.3904 13.4012C15.1704 13.6212 14.8851 13.7399 14.5691 13.7399C14.2731 13.7399 13.9824 13.6186 13.7491 13.3999C13.5277 13.1799 13.4024 12.8786 13.4024 12.5732C13.4024 12.2826 13.5251 11.9839 13.7411 11.7532C13.8597 11.6332 14.0011 11.5426 14.1424 11.4946C14.5451 11.3106 15.0797 11.4186 15.3971 11.7519C15.5104 11.8652 15.5971 11.9892 15.6544 12.1186C15.7171 12.2572 15.7491 12.4146 15.7491 12.5732C15.7491 12.8906 15.6224 13.1852 15.3904 13.4012ZM22.254 11.7464C21.7993 11.2931 21.0593 11.2931 20.6047 11.7464L13.7513 18.5998C13.2967 19.0544 13.2967 19.7944 13.7513 20.2504C13.9727 20.4704 14.2647 20.5918 14.5767 20.5918C14.8887 20.5918 15.1807 20.4704 15.4007 20.2504L22.254 13.3971C22.7087 12.9411 22.7087 12.2024 22.254 11.7464ZM21.8744 18.3519C21.4424 18.1706 20.9304 18.2692 20.5891 18.6106C20.5184 18.6932 20.4184 18.8212 20.3504 18.9719C20.2784 19.1346 20.2691 19.3092 20.2691 19.4266C20.2691 19.5439 20.2784 19.7172 20.3504 19.8799C20.4171 20.0292 20.4971 20.1506 20.6024 20.2559C20.8437 20.4799 21.1237 20.5932 21.4357 20.5932C21.7317 20.5932 22.0224 20.4732 22.2611 20.2506C22.4731 20.0386 22.5891 19.7452 22.5891 19.4266C22.5891 19.1066 22.4731 18.8146 22.2597 18.6012C22.1424 18.4852 22.0011 18.3946 21.8744 18.3519Z" fill="#00F6FF"/>
</g>
<defs>
<filter id="filter0_d_0_317" x="-2" y="0" width="40" height="40" filterUnits="userSpaceOnUse" color-interpolation-filters="sRGB">
<feFlood flood-opacity="0" result="BackgroundImageFix"/>
<feColorMatrix in="SourceAlpha" type="matrix" values="0 0 0 0 0 0 0 0 0 0 0 0 0 0 0 0 0 0 127 0" result="hardAlpha"/>
<feOffset dy="4"/>
<feGaussianBlur stdDeviation="2"/>
<feComposite in2="hardAlpha" operator="out"/>
<feColorMatrix type="matrix" values="0 0 0 0 0 0 0 0 0 0 0 0 0 0 0 0 0 0 0.25 0"/>
<feBlend mode="normal" in2="BackgroundImageFix" result="effect1_dropShadow_0_317"/>
<feBlend mode="normal" in="SourceGraphic" in2="effect1_dropShadow_0_317" result="shape"/>
</filter>
</defs>
</svg>
